<?xml version="1.0" encoding="utf-8" standalone="no"?>
<!DOCTYPE svg PUBLIC "-//W3C//DTD SVG 1.1//EN"
  "http://www.w3.org/Graphics/SVG/1.1/DTD/svg11.dtd">
<!-- Created with matplotlib (https://matplotlib.org/) -->
<svg height="207.83625pt" version="1.1" viewBox="0 0 385.78125 207.83625" width="385.78125pt" xmlns="http://www.w3.org/2000/svg" xmlns:xlink="http://www.w3.org/1999/xlink">
 <defs>
  <style type="text/css">
*{stroke-linecap:butt;stroke-linejoin:round;}
  </style>
 </defs>
 <g id="figure_1">
  <g id="patch_1">
   <path d="M 0 207.83625 
L 385.78125 207.83625 
L 385.78125 0 
L 0 0 
z
" style="fill:none;"/>
  </g>
  <g id="axes_1">
   <g id="patch_2">
    <path d="M 43.78125 170.28 
L 378.58125 170.28 
L 378.58125 7.2 
L 43.78125 7.2 
z
" style="fill:#ffffff;"/>
   </g>
   <g id="matplotlib.axis_1">
    <g id="xtick_1">
     <g id="line2d_1">
      <defs>
       <path d="M 0 0 
L 0 3.5 
" id="m15d627cf5b" style="stroke:#000000;stroke-width:0.8;"/>
      </defs>
      <g>
       <use style="stroke:#000000;stroke-width:0.8;" x="55.194886" xlink:href="#m15d627cf5b" y="170.28"/>
      </g>
     </g>
     <g id="text_1">
      <!-- 0.2 -->
      <defs>
       <path d="M 31.78125 66.40625 
Q 24.171875 66.40625 20.328125 58.90625 
Q 16.5 51.421875 16.5 36.375 
Q 16.5 21.390625 20.328125 13.890625 
Q 24.171875 6.390625 31.78125 6.390625 
Q 39.453125 6.390625 43.28125 13.890625 
Q 47.125 21.390625 47.125 36.375 
Q 47.125 51.421875 43.28125 58.90625 
Q 39.453125 66.40625 31.78125 66.40625 
z
M 31.78125 74.21875 
Q 44.046875 74.21875 50.515625 64.515625 
Q 56.984375 54.828125 56.984375 36.375 
Q 56.984375 17.96875 50.515625 8.265625 
Q 44.046875 -1.421875 31.78125 -1.421875 
Q 19.53125 -1.421875 13.0625 8.265625 
Q 6.59375 17.96875 6.59375 36.375 
Q 6.59375 54.828125 13.0625 64.515625 
Q 19.53125 74.21875 31.78125 74.21875 
z
" id="DejaVuSans-48"/>
       <path d="M 10.6875 12.40625 
L 21 12.40625 
L 21 0 
L 10.6875 0 
z
" id="DejaVuSans-46"/>
       <path d="M 19.1875 8.296875 
L 53.609375 8.296875 
L 53.609375 0 
L 7.328125 0 
L 7.328125 8.296875 
Q 12.9375 14.109375 22.625 23.890625 
Q 32.328125 33.6875 34.8125 36.53125 
Q 39.546875 41.84375 41.421875 45.53125 
Q 43.3125 49.21875 43.3125 52.78125 
Q 43.3125 58.59375 39.234375 62.25 
Q 35.15625 65.921875 28.609375 65.921875 
Q 23.96875 65.921875 18.8125 64.3125 
Q 13.671875 62.703125 7.8125 59.421875 
L 7.8125 69.390625 
Q 13.765625 71.78125 18.9375 73 
Q 24.125 74.21875 28.421875 74.21875 
Q 39.75 74.21875 46.484375 68.546875 
Q 53.21875 62.890625 53.21875 53.421875 
Q 53.21875 48.921875 51.53125 44.890625 
Q 49.859375 40.875 45.40625 35.40625 
Q 44.1875 33.984375 37.640625 27.21875 
Q 31.109375 20.453125 19.1875 8.296875 
z
" id="DejaVuSans-50"/>
      </defs>
      <g transform="translate(47.243324 184.878438)scale(0.1 -0.1)">
       <use xlink:href="#DejaVuSans-48"/>
       <use x="63.623047" xlink:href="#DejaVuSans-46"/>
       <use x="95.410156" xlink:href="#DejaVuSans-50"/>
      </g>
     </g>
    </g>
    <g id="xtick_2">
     <g id="line2d_2">
      <g>
       <use style="stroke:#000000;stroke-width:0.8;" x="107.190341" xlink:href="#m15d627cf5b" y="170.28"/>
      </g>
     </g>
     <g id="text_2">
      <!-- 0.3 -->
      <defs>
       <path d="M 40.578125 39.3125 
Q 47.65625 37.796875 51.625 33 
Q 55.609375 28.21875 55.609375 21.1875 
Q 55.609375 10.40625 48.1875 4.484375 
Q 40.765625 -1.421875 27.09375 -1.421875 
Q 22.515625 -1.421875 17.65625 -0.515625 
Q 12.796875 0.390625 7.625 2.203125 
L 7.625 11.71875 
Q 11.71875 9.328125 16.59375 8.109375 
Q 21.484375 6.890625 26.8125 6.890625 
Q 36.078125 6.890625 40.9375 10.546875 
Q 45.796875 14.203125 45.796875 21.1875 
Q 45.796875 27.640625 41.28125 31.265625 
Q 36.765625 34.90625 28.71875 34.90625 
L 20.21875 34.90625 
L 20.21875 43.015625 
L 29.109375 43.015625 
Q 36.375 43.015625 40.234375 45.921875 
Q 44.09375 48.828125 44.09375 54.296875 
Q 44.09375 59.90625 40.109375 62.90625 
Q 36.140625 65.921875 28.71875 65.921875 
Q 24.65625 65.921875 20.015625 65.03125 
Q 15.375 64.15625 9.8125 62.3125 
L 9.8125 71.09375 
Q 15.4375 72.65625 20.34375 73.4375 
Q 25.25 74.21875 29.59375 74.21875 
Q 40.828125 74.21875 47.359375 69.109375 
Q 53.90625 64.015625 53.90625 55.328125 
Q 53.90625 49.265625 50.4375 45.09375 
Q 46.96875 40.921875 40.578125 39.3125 
z
" id="DejaVuSans-51"/>
      </defs>
      <g transform="translate(99.238778 184.878438)scale(0.1 -0.1)">
       <use xlink:href="#DejaVuSans-48"/>
       <use x="63.623047" xlink:href="#DejaVuSans-46"/>
       <use x="95.410156" xlink:href="#DejaVuSans-51"/>
      </g>
     </g>
    </g>
    <g id="xtick_3">
     <g id="line2d_3">
      <g>
       <use style="stroke:#000000;stroke-width:0.8;" x="159.185795" xlink:href="#m15d627cf5b" y="170.28"/>
      </g>
     </g>
     <g id="text_3">
      <!-- 0.4 -->
      <defs>
       <path d="M 37.796875 64.3125 
L 12.890625 25.390625 
L 37.796875 25.390625 
z
M 35.203125 72.90625 
L 47.609375 72.90625 
L 47.609375 25.390625 
L 58.015625 25.390625 
L 58.015625 17.1875 
L 47.609375 17.1875 
L 47.609375 0 
L 37.796875 0 
L 37.796875 17.1875 
L 4.890625 17.1875 
L 4.890625 26.703125 
z
" id="DejaVuSans-52"/>
      </defs>
      <g transform="translate(151.234233 184.878438)scale(0.1 -0.1)">
       <use xlink:href="#DejaVuSans-48"/>
       <use x="63.623047" xlink:href="#DejaVuSans-46"/>
       <use x="95.410156" xlink:href="#DejaVuSans-52"/>
      </g>
     </g>
    </g>
    <g id="xtick_4">
     <g id="line2d_4">
      <g>
       <use style="stroke:#000000;stroke-width:0.8;" x="211.18125" xlink:href="#m15d627cf5b" y="170.28"/>
      </g>
     </g>
     <g id="text_4">
      <!-- 0.5 -->
      <defs>
       <path d="M 10.796875 72.90625 
L 49.515625 72.90625 
L 49.515625 64.59375 
L 19.828125 64.59375 
L 19.828125 46.734375 
Q 21.96875 47.46875 24.109375 47.828125 
Q 26.265625 48.1875 28.421875 48.1875 
Q 40.625 48.1875 47.75 41.5 
Q 54.890625 34.8125 54.890625 23.390625 
Q 54.890625 11.625 47.5625 5.09375 
Q 40.234375 -1.421875 26.90625 -1.421875 
Q 22.3125 -1.421875 17.546875 -0.640625 
Q 12.796875 0.140625 7.71875 1.703125 
L 7.71875 11.625 
Q 12.109375 9.234375 16.796875 8.0625 
Q 21.484375 6.890625 26.703125 6.890625 
Q 35.15625 6.890625 40.078125 11.328125 
Q 45.015625 15.765625 45.015625 23.390625 
Q 45.015625 31 40.078125 35.4375 
Q 35.15625 39.890625 26.703125 39.890625 
Q 22.75 39.890625 18.8125 39.015625 
Q 14.890625 38.140625 10.796875 36.28125 
z
" id="DejaVuSans-53"/>
      </defs>
      <g transform="translate(203.229688 184.878438)scale(0.1 -0.1)">
       <use xlink:href="#DejaVuSans-48"/>
       <use x="63.623047" xlink:href="#DejaVuSans-46"/>
       <use x="95.410156" xlink:href="#DejaVuSans-53"/>
      </g>
     </g>
    </g>
    <g id="xtick_5">
     <g id="line2d_5">
      <g>
       <use style="stroke:#000000;stroke-width:0.8;" x="263.176705" xlink:href="#m15d627cf5b" y="170.28"/>
      </g>
     </g>
     <g id="text_5">
      <!-- 0.6 -->
      <defs>
       <path d="M 33.015625 40.375 
Q 26.375 40.375 22.484375 35.828125 
Q 18.609375 31.296875 18.609375 23.390625 
Q 18.609375 15.53125 22.484375 10.953125 
Q 26.375 6.390625 33.015625 6.390625 
Q 39.65625 6.390625 43.53125 10.953125 
Q 47.40625 15.53125 47.40625 23.390625 
Q 47.40625 31.296875 43.53125 35.828125 
Q 39.65625 40.375 33.015625 40.375 
z
M 52.59375 71.296875 
L 52.59375 62.3125 
Q 48.875 64.0625 45.09375 64.984375 
Q 41.3125 65.921875 37.59375 65.921875 
Q 27.828125 65.921875 22.671875 59.328125 
Q 17.53125 52.734375 16.796875 39.40625 
Q 19.671875 43.65625 24.015625 45.921875 
Q 28.375 48.1875 33.59375 48.1875 
Q 44.578125 48.1875 50.953125 41.515625 
Q 57.328125 34.859375 57.328125 23.390625 
Q 57.328125 12.15625 50.6875 5.359375 
Q 44.046875 -1.421875 33.015625 -1.421875 
Q 20.359375 -1.421875 13.671875 8.265625 
Q 6.984375 17.96875 6.984375 36.375 
Q 6.984375 53.65625 15.1875 63.9375 
Q 23.390625 74.21875 37.203125 74.21875 
Q 40.921875 74.21875 44.703125 73.484375 
Q 48.484375 72.75 52.59375 71.296875 
z
" id="DejaVuSans-54"/>
      </defs>
      <g transform="translate(255.225142 184.878438)scale(0.1 -0.1)">
       <use xlink:href="#DejaVuSans-48"/>
       <use x="63.623047" xlink:href="#DejaVuSans-46"/>
       <use x="95.410156" xlink:href="#DejaVuSans-54"/>
      </g>
     </g>
    </g>
    <g id="xtick_6">
     <g id="line2d_6">
      <g>
       <use style="stroke:#000000;stroke-width:0.8;" x="315.172159" xlink:href="#m15d627cf5b" y="170.28"/>
      </g>
     </g>
     <g id="text_6">
      <!-- 0.7 -->
      <defs>
       <path d="M 8.203125 72.90625 
L 55.078125 72.90625 
L 55.078125 68.703125 
L 28.609375 0 
L 18.3125 0 
L 43.21875 64.59375 
L 8.203125 64.59375 
z
" id="DejaVuSans-55"/>
      </defs>
      <g transform="translate(307.220597 184.878438)scale(0.1 -0.1)">
       <use xlink:href="#DejaVuSans-48"/>
       <use x="63.623047" xlink:href="#DejaVuSans-46"/>
       <use x="95.410156" xlink:href="#DejaVuSans-55"/>
      </g>
     </g>
    </g>
    <g id="xtick_7">
     <g id="line2d_7">
      <g>
       <use style="stroke:#000000;stroke-width:0.8;" x="367.167614" xlink:href="#m15d627cf5b" y="170.28"/>
      </g>
     </g>
     <g id="text_7">
      <!-- 0.8 -->
      <defs>
       <path d="M 31.78125 34.625 
Q 24.75 34.625 20.71875 30.859375 
Q 16.703125 27.09375 16.703125 20.515625 
Q 16.703125 13.921875 20.71875 10.15625 
Q 24.75 6.390625 31.78125 6.390625 
Q 38.8125 6.390625 42.859375 10.171875 
Q 46.921875 13.96875 46.921875 20.515625 
Q 46.921875 27.09375 42.890625 30.859375 
Q 38.875 34.625 31.78125 34.625 
z
M 21.921875 38.8125 
Q 15.578125 40.375 12.03125 44.71875 
Q 8.5 49.078125 8.5 55.328125 
Q 8.5 64.0625 14.71875 69.140625 
Q 20.953125 74.21875 31.78125 74.21875 
Q 42.671875 74.21875 48.875 69.140625 
Q 55.078125 64.0625 55.078125 55.328125 
Q 55.078125 49.078125 51.53125 44.71875 
Q 48 40.375 41.703125 38.8125 
Q 48.828125 37.15625 52.796875 32.3125 
Q 56.78125 27.484375 56.78125 20.515625 
Q 56.78125 9.90625 50.3125 4.234375 
Q 43.84375 -1.421875 31.78125 -1.421875 
Q 19.734375 -1.421875 13.25 4.234375 
Q 6.78125 9.90625 6.78125 20.515625 
Q 6.78125 27.484375 10.78125 32.3125 
Q 14.796875 37.15625 21.921875 38.8125 
z
M 18.3125 54.390625 
Q 18.3125 48.734375 21.84375 45.5625 
Q 25.390625 42.390625 31.78125 42.390625 
Q 38.140625 42.390625 41.71875 45.5625 
Q 45.3125 48.734375 45.3125 54.390625 
Q 45.3125 60.0625 41.71875 63.234375 
Q 38.140625 66.40625 31.78125 66.40625 
Q 25.390625 66.40625 21.84375 63.234375 
Q 18.3125 60.0625 18.3125 54.390625 
z
" id="DejaVuSans-56"/>
      </defs>
      <g transform="translate(359.216051 184.878438)scale(0.1 -0.1)">
       <use xlink:href="#DejaVuSans-48"/>
       <use x="63.623047" xlink:href="#DejaVuSans-46"/>
       <use x="95.410156" xlink:href="#DejaVuSans-56"/>
      </g>
     </g>
    </g>
    <g id="text_8">
     <!-- Winning Percentage Year 1 -->
     <defs>
      <path d="M 3.328125 72.90625 
L 13.28125 72.90625 
L 28.609375 11.28125 
L 43.890625 72.90625 
L 54.984375 72.90625 
L 70.3125 11.28125 
L 85.59375 72.90625 
L 95.609375 72.90625 
L 77.296875 0 
L 64.890625 0 
L 49.515625 63.28125 
L 33.984375 0 
L 21.578125 0 
z
" id="DejaVuSans-87"/>
      <path d="M 9.421875 54.6875 
L 18.40625 54.6875 
L 18.40625 0 
L 9.421875 0 
z
M 9.421875 75.984375 
L 18.40625 75.984375 
L 18.40625 64.59375 
L 9.421875 64.59375 
z
" id="DejaVuSans-105"/>
      <path d="M 54.890625 33.015625 
L 54.890625 0 
L 45.90625 0 
L 45.90625 32.71875 
Q 45.90625 40.484375 42.875 44.328125 
Q 39.84375 48.1875 33.796875 48.1875 
Q 26.515625 48.1875 22.3125 43.546875 
Q 18.109375 38.921875 18.109375 30.90625 
L 18.109375 0 
L 9.078125 0 
L 9.078125 54.6875 
L 18.109375 54.6875 
L 18.109375 46.1875 
Q 21.34375 51.125 25.703125 53.5625 
Q 30.078125 56 35.796875 56 
Q 45.21875 56 50.046875 50.171875 
Q 54.890625 44.34375 54.890625 33.015625 
z
" id="DejaVuSans-110"/>
      <path d="M 45.40625 27.984375 
Q 45.40625 37.75 41.375 43.109375 
Q 37.359375 48.484375 30.078125 48.484375 
Q 22.859375 48.484375 18.828125 43.109375 
Q 14.796875 37.75 14.796875 27.984375 
Q 14.796875 18.265625 18.828125 12.890625 
Q 22.859375 7.515625 30.078125 7.515625 
Q 37.359375 7.515625 41.375 12.890625 
Q 45.40625 18.265625 45.40625 27.984375 
z
M 54.390625 6.78125 
Q 54.390625 -7.171875 48.1875 -13.984375 
Q 42 -20.796875 29.203125 -20.796875 
Q 24.46875 -20.796875 20.265625 -20.09375 
Q 16.0625 -19.390625 12.109375 -17.921875 
L 12.109375 -9.1875 
Q 16.0625 -11.328125 19.921875 -12.34375 
Q 23.78125 -13.375 27.78125 -13.375 
Q 36.625 -13.375 41.015625 -8.765625 
Q 45.40625 -4.15625 45.40625 5.171875 
L 45.40625 9.625 
Q 42.625 4.78125 38.28125 2.390625 
Q 33.9375 0 27.875 0 
Q 17.828125 0 11.671875 7.65625 
Q 5.515625 15.328125 5.515625 27.984375 
Q 5.515625 40.671875 11.671875 48.328125 
Q 17.828125 56 27.875 56 
Q 33.9375 56 38.28125 53.609375 
Q 42.625 51.21875 45.40625 46.390625 
L 45.40625 54.6875 
L 54.390625 54.6875 
z
" id="DejaVuSans-103"/>
      <path id="DejaVuSans-32"/>
      <path d="M 19.671875 64.796875 
L 19.671875 37.40625 
L 32.078125 37.40625 
Q 38.96875 37.40625 42.71875 40.96875 
Q 46.484375 44.53125 46.484375 51.125 
Q 46.484375 57.671875 42.71875 61.234375 
Q 38.96875 64.796875 32.078125 64.796875 
z
M 9.8125 72.90625 
L 32.078125 72.90625 
Q 44.34375 72.90625 50.609375 67.359375 
Q 56.890625 61.8125 56.890625 51.125 
Q 56.890625 40.328125 50.609375 34.8125 
Q 44.34375 29.296875 32.078125 29.296875 
L 19.671875 29.296875 
L 19.671875 0 
L 9.8125 0 
z
" id="DejaVuSans-80"/>
      <path d="M 56.203125 29.59375 
L 56.203125 25.203125 
L 14.890625 25.203125 
Q 15.484375 15.921875 20.484375 11.0625 
Q 25.484375 6.203125 34.421875 6.203125 
Q 39.59375 6.203125 44.453125 7.46875 
Q 49.3125 8.734375 54.109375 11.28125 
L 54.109375 2.78125 
Q 49.265625 0.734375 44.1875 -0.34375 
Q 39.109375 -1.421875 33.890625 -1.421875 
Q 20.796875 -1.421875 13.15625 6.1875 
Q 5.515625 13.8125 5.515625 26.8125 
Q 5.515625 40.234375 12.765625 48.109375 
Q 20.015625 56 32.328125 56 
Q 43.359375 56 49.78125 48.890625 
Q 56.203125 41.796875 56.203125 29.59375 
z
M 47.21875 32.234375 
Q 47.125 39.59375 43.09375 43.984375 
Q 39.0625 48.390625 32.421875 48.390625 
Q 24.90625 48.390625 20.390625 44.140625 
Q 15.875 39.890625 15.1875 32.171875 
z
" id="DejaVuSans-101"/>
      <path d="M 41.109375 46.296875 
Q 39.59375 47.171875 37.8125 47.578125 
Q 36.03125 48 33.890625 48 
Q 26.265625 48 22.1875 43.046875 
Q 18.109375 38.09375 18.109375 28.8125 
L 18.109375 0 
L 9.078125 0 
L 9.078125 54.6875 
L 18.109375 54.6875 
L 18.109375 46.1875 
Q 20.953125 51.171875 25.484375 53.578125 
Q 30.03125 56 36.53125 56 
Q 37.453125 56 38.578125 55.875 
Q 39.703125 55.765625 41.0625 55.515625 
z
" id="DejaVuSans-114"/>
      <path d="M 48.78125 52.59375 
L 48.78125 44.1875 
Q 44.96875 46.296875 41.140625 47.34375 
Q 37.3125 48.390625 33.40625 48.390625 
Q 24.65625 48.390625 19.8125 42.84375 
Q 14.984375 37.3125 14.984375 27.296875 
Q 14.984375 17.28125 19.8125 11.734375 
Q 24.65625 6.203125 33.40625 6.203125 
Q 37.3125 6.203125 41.140625 7.25 
Q 44.96875 8.296875 48.78125 10.40625 
L 48.78125 2.09375 
Q 45.015625 0.34375 40.984375 -0.53125 
Q 36.96875 -1.421875 32.421875 -1.421875 
Q 20.0625 -1.421875 12.78125 6.34375 
Q 5.515625 14.109375 5.515625 27.296875 
Q 5.515625 40.671875 12.859375 48.328125 
Q 20.21875 56 33.015625 56 
Q 37.15625 56 41.109375 55.140625 
Q 45.0625 54.296875 48.78125 52.59375 
z
" id="DejaVuSans-99"/>
      <path d="M 18.3125 70.21875 
L 18.3125 54.6875 
L 36.8125 54.6875 
L 36.8125 47.703125 
L 18.3125 47.703125 
L 18.3125 18.015625 
Q 18.3125 11.328125 20.140625 9.421875 
Q 21.96875 7.515625 27.59375 7.515625 
L 36.8125 7.515625 
L 36.8125 0 
L 27.59375 0 
Q 17.1875 0 13.234375 3.875 
Q 9.28125 7.765625 9.28125 18.015625 
L 9.28125 47.703125 
L 2.6875 47.703125 
L 2.6875 54.6875 
L 9.28125 54.6875 
L 9.28125 70.21875 
z
" id="DejaVuSans-116"/>
      <path d="M 34.28125 27.484375 
Q 23.390625 27.484375 19.1875 25 
Q 14.984375 22.515625 14.984375 16.5 
Q 14.984375 11.71875 18.140625 8.90625 
Q 21.296875 6.109375 26.703125 6.109375 
Q 34.1875 6.109375 38.703125 11.40625 
Q 43.21875 16.703125 43.21875 25.484375 
L 43.21875 27.484375 
z
M 52.203125 31.203125 
L 52.203125 0 
L 43.21875 0 
L 43.21875 8.296875 
Q 40.140625 3.328125 35.546875 0.953125 
Q 30.953125 -1.421875 24.3125 -1.421875 
Q 15.921875 -1.421875 10.953125 3.296875 
Q 6 8.015625 6 15.921875 
Q 6 25.140625 12.171875 29.828125 
Q 18.359375 34.515625 30.609375 34.515625 
L 43.21875 34.515625 
L 43.21875 35.40625 
Q 43.21875 41.609375 39.140625 45 
Q 35.0625 48.390625 27.6875 48.390625 
Q 23 48.390625 18.546875 47.265625 
Q 14.109375 46.140625 10.015625 43.890625 
L 10.015625 52.203125 
Q 14.9375 54.109375 19.578125 55.046875 
Q 24.21875 56 28.609375 56 
Q 40.484375 56 46.34375 49.84375 
Q 52.203125 43.703125 52.203125 31.203125 
z
" id="DejaVuSans-97"/>
      <path d="M -0.203125 72.90625 
L 10.40625 72.90625 
L 30.609375 42.921875 
L 50.6875 72.90625 
L 61.28125 72.90625 
L 35.5 34.71875 
L 35.5 0 
L 25.59375 0 
L 25.59375 34.71875 
z
" id="DejaVuSans-89"/>
      <path d="M 12.40625 8.296875 
L 28.515625 8.296875 
L 28.515625 63.921875 
L 10.984375 60.40625 
L 10.984375 69.390625 
L 28.421875 72.90625 
L 38.28125 72.90625 
L 38.28125 8.296875 
L 54.390625 8.296875 
L 54.390625 0 
L 12.40625 0 
z
" id="DejaVuSans-49"/>
     </defs>
     <g transform="translate(144.232813 198.556563)scale(0.1 -0.1)">
      <use xlink:href="#DejaVuSans-87"/>
      <use x="96.626953" xlink:href="#DejaVuSans-105"/>
      <use x="124.410156" xlink:href="#DejaVuSans-110"/>
      <use x="187.789062" xlink:href="#DejaVuSans-110"/>
      <use x="251.167969" xlink:href="#DejaVuSans-105"/>
      <use x="278.951172" xlink:href="#DejaVuSans-110"/>
      <use x="342.330078" xlink:href="#DejaVuSans-103"/>
      <use x="405.806641" xlink:href="#DejaVuSans-32"/>
      <use x="437.59375" xlink:href="#DejaVuSans-80"/>
      <use x="494.271484" xlink:href="#DejaVuSans-101"/>
      <use x="555.794922" xlink:href="#DejaVuSans-114"/>
      <use x="594.658203" xlink:href="#DejaVuSans-99"/>
      <use x="649.638672" xlink:href="#DejaVuSans-101"/>
      <use x="711.162109" xlink:href="#DejaVuSans-110"/>
      <use x="774.541016" xlink:href="#DejaVuSans-116"/>
      <use x="813.75" xlink:href="#DejaVuSans-97"/>
      <use x="875.029297" xlink:href="#DejaVuSans-103"/>
      <use x="938.505859" xlink:href="#DejaVuSans-101"/>
      <use x="1000.029297" xlink:href="#DejaVuSans-32"/>
      <use x="1031.816406" xlink:href="#DejaVuSans-89"/>
      <use x="1079.650391" xlink:href="#DejaVuSans-101"/>
      <use x="1141.173828" xlink:href="#DejaVuSans-97"/>
      <use x="1202.453125" xlink:href="#DejaVuSans-114"/>
      <use x="1243.566406" xlink:href="#DejaVuSans-32"/>
      <use x="1275.353516" xlink:href="#DejaVuSans-49"/>
     </g>
    </g>
   </g>
   <g id="matplotlib.axis_2">
    <g id="ytick_1">
     <g id="line2d_8">
      <defs>
       <path d="M 0 0 
L -3.5 0 
" id="ma392457833" style="stroke:#000000;stroke-width:0.8;"/>
      </defs>
      <g>
       <use style="stroke:#000000;stroke-width:0.8;" x="43.78125" xlink:href="#ma392457833" y="146.839661"/>
      </g>
     </g>
     <g id="text_9">
      <!-- 0.2 -->
      <g transform="translate(20.878125 150.63888)scale(0.1 -0.1)">
       <use xlink:href="#DejaVuSans-48"/>
       <use x="63.623047" xlink:href="#DejaVuSans-46"/>
       <use x="95.410156" xlink:href="#DejaVuSans-50"/>
      </g>
     </g>
    </g>
    <g id="ytick_2">
     <g id="line2d_9">
      <g>
       <use style="stroke:#000000;stroke-width:0.8;" x="43.78125" xlink:href="#ma392457833" y="107.824407"/>
      </g>
     </g>
     <g id="text_10">
      <!-- 0.4 -->
      <g transform="translate(20.878125 111.623626)scale(0.1 -0.1)">
       <use xlink:href="#DejaVuSans-48"/>
       <use x="63.623047" xlink:href="#DejaVuSans-46"/>
       <use x="95.410156" xlink:href="#DejaVuSans-52"/>
      </g>
     </g>
    </g>
    <g id="ytick_3">
     <g id="line2d_10">
      <g>
       <use style="stroke:#000000;stroke-width:0.8;" x="43.78125" xlink:href="#ma392457833" y="68.809153"/>
      </g>
     </g>
     <g id="text_11">
      <!-- 0.6 -->
      <g transform="translate(20.878125 72.608372)scale(0.1 -0.1)">
       <use xlink:href="#DejaVuSans-48"/>
       <use x="63.623047" xlink:href="#DejaVuSans-46"/>
       <use x="95.410156" xlink:href="#DejaVuSans-54"/>
      </g>
     </g>
    </g>
    <g id="ytick_4">
     <g id="line2d_11">
      <g>
       <use style="stroke:#000000;stroke-width:0.8;" x="43.78125" xlink:href="#ma392457833" y="29.793899"/>
      </g>
     </g>
     <g id="text_12">
      <!-- 0.8 -->
      <g transform="translate(20.878125 33.593118)scale(0.1 -0.1)">
       <use xlink:href="#DejaVuSans-48"/>
       <use x="63.623047" xlink:href="#DejaVuSans-46"/>
       <use x="95.410156" xlink:href="#DejaVuSans-56"/>
      </g>
     </g>
    </g>
    <g id="text_13">
     <!-- Winning Percentage Year 2 -->
     <g transform="translate(14.798438 155.688438)rotate(-90)scale(0.1 -0.1)">
      <use xlink:href="#DejaVuSans-87"/>
      <use x="96.626953" xlink:href="#DejaVuSans-105"/>
      <use x="124.410156" xlink:href="#DejaVuSans-110"/>
      <use x="187.789062" xlink:href="#DejaVuSans-110"/>
      <use x="251.167969" xlink:href="#DejaVuSans-105"/>
      <use x="278.951172" xlink:href="#DejaVuSans-110"/>
      <use x="342.330078" xlink:href="#DejaVuSans-103"/>
      <use x="405.806641" xlink:href="#DejaVuSans-32"/>
      <use x="437.59375" xlink:href="#DejaVuSans-80"/>
      <use x="494.271484" xlink:href="#DejaVuSans-101"/>
      <use x="555.794922" xlink:href="#DejaVuSans-114"/>
      <use x="594.658203" xlink:href="#DejaVuSans-99"/>
      <use x="649.638672" xlink:href="#DejaVuSans-101"/>
      <use x="711.162109" xlink:href="#DejaVuSans-110"/>
      <use x="774.541016" xlink:href="#DejaVuSans-116"/>
      <use x="813.75" xlink:href="#DejaVuSans-97"/>
      <use x="875.029297" xlink:href="#DejaVuSans-103"/>
      <use x="938.505859" xlink:href="#DejaVuSans-101"/>
      <use x="1000.029297" xlink:href="#DejaVuSans-32"/>
      <use x="1031.816406" xlink:href="#DejaVuSans-89"/>
      <use x="1079.650391" xlink:href="#DejaVuSans-101"/>
      <use x="1141.173828" xlink:href="#DejaVuSans-97"/>
      <use x="1202.453125" xlink:href="#DejaVuSans-114"/>
      <use x="1243.566406" xlink:href="#DejaVuSans-32"/>
      <use x="1275.353516" xlink:href="#DejaVuSans-50"/>
     </g>
    </g>
   </g>
   <g id="line2d_12">
    <defs>
     <path d="M 0 3 
C 0.795609 3 1.55874 2.683901 2.12132 2.12132 
C 2.683901 1.55874 3 0.795609 3 0 
C 3 -0.795609 2.683901 -1.55874 2.12132 -2.12132 
C 1.55874 -2.683901 0.795609 -3 0 -3 
C -0.795609 -3 -1.55874 -2.683901 -2.12132 -2.12132 
C -2.683901 -1.55874 -3 -0.795609 -3 0 
C -3 0.795609 -2.683901 1.55874 -2.12132 2.12132 
C -1.55874 2.683901 -0.795609 3 0 3 
z
" id="m6af266dfa7" style="stroke:#1f77b4;stroke-opacity:0.75;"/>
    </defs>
    <g clip-path="url(#pd49d17f6d6)">
     <use style="fill:#1f77b4;fill-opacity:0.75;stroke:#1f77b4;stroke-opacity:0.75;" x="247.289205" xlink:href="#m6af266dfa7" y="94.837029"/>
     <use style="fill:#1f77b4;fill-opacity:0.75;stroke:#1f77b4;stroke-opacity:0.75;" x="211.18125" xlink:href="#m6af266dfa7" y="114.133097"/>
     <use style="fill:#1f77b4;fill-opacity:0.75;stroke:#1f77b4;stroke-opacity:0.75;" x="297.840341" xlink:href="#m6af266dfa7" y="108.332977"/>
     <use style="fill:#1f77b4;fill-opacity:0.75;stroke:#1f77b4;stroke-opacity:0.75;" x="175.073295" xlink:href="#m6af266dfa7" y="119.941618"/>
     <use style="fill:#1f77b4;fill-opacity:0.75;stroke:#1f77b4;stroke-opacity:0.75;" x="189.516477" xlink:href="#m6af266dfa7" y="94.714375"/>
     <use style="fill:#1f77b4;fill-opacity:0.75;stroke:#1f77b4;stroke-opacity:0.75;" x="110.078977" xlink:href="#m6af266dfa7" y="78.596007"/>
     <use style="fill:#1f77b4;fill-opacity:0.75;stroke:#1f77b4;stroke-opacity:0.75;" x="254.510795" xlink:href="#m6af266dfa7" y="99.619677"/>
     <use style="fill:#1f77b4;fill-opacity:0.75;stroke:#1f77b4;stroke-opacity:0.75;" x="290.61875" xlink:href="#m6af266dfa7" y="61.135313"/>
     <use style="fill:#1f77b4;fill-opacity:0.75;stroke:#1f77b4;stroke-opacity:0.75;" x="95.635795" xlink:href="#m6af266dfa7" y="100.342748"/>
     <use style="fill:#1f77b4;fill-opacity:0.75;stroke:#1f77b4;stroke-opacity:0.75;" x="232.846023" xlink:href="#m6af266dfa7" y="74.717661"/>
     <use style="fill:#1f77b4;fill-opacity:0.75;stroke:#1f77b4;stroke-opacity:0.75;" x="73.971023" xlink:href="#m6af266dfa7" y="162.867273"/>
     <use style="fill:#1f77b4;fill-opacity:0.75;stroke:#1f77b4;stroke-opacity:0.75;" x="196.738068" xlink:href="#m6af266dfa7" y="83.538126"/>
     <use style="fill:#1f77b4;fill-opacity:0.75;stroke:#1f77b4;stroke-opacity:0.75;" x="290.61875" xlink:href="#m6af266dfa7" y="37.255894"/>
     <use style="fill:#1f77b4;fill-opacity:0.75;stroke:#1f77b4;stroke-opacity:0.75;" x="254.510795" xlink:href="#m6af266dfa7" y="102.915836"/>
     <use style="fill:#1f77b4;fill-opacity:0.75;stroke:#1f77b4;stroke-opacity:0.75;" x="225.624432" xlink:href="#m6af266dfa7" y="127.23701"/>
     <use style="fill:#1f77b4;fill-opacity:0.75;stroke:#1f77b4;stroke-opacity:0.75;" x="240.067614" xlink:href="#m6af266dfa7" y="77.523211"/>
     <use style="fill:#1f77b4;fill-opacity:0.75;stroke:#1f77b4;stroke-opacity:0.75;" x="283.397159" xlink:href="#m6af266dfa7" y="57.043999"/>
     <use style="fill:#1f77b4;fill-opacity:0.75;stroke:#1f77b4;stroke-opacity:0.75;" x="117.300568" xlink:href="#m6af266dfa7" y="88.394936"/>
     <use style="fill:#1f77b4;fill-opacity:0.75;stroke:#1f77b4;stroke-opacity:0.75;" x="175.073295" xlink:href="#m6af266dfa7" y="62.049174"/>
     <use style="fill:#1f77b4;fill-opacity:0.75;stroke:#1f77b4;stroke-opacity:0.75;" x="247.289205" xlink:href="#m6af266dfa7" y="70.692572"/>
     <use style="fill:#1f77b4;fill-opacity:0.75;stroke:#1f77b4;stroke-opacity:0.75;" x="110.078977" xlink:href="#m6af266dfa7" y="120.567393"/>
     <use style="fill:#1f77b4;fill-opacity:0.75;stroke:#1f77b4;stroke-opacity:0.75;" x="102.857386" xlink:href="#m6af266dfa7" y="107.508564"/>
     <use style="fill:#1f77b4;fill-opacity:0.75;stroke:#1f77b4;stroke-opacity:0.75;" x="305.061932" xlink:href="#m6af266dfa7" y="46.812439"/>
     <use style="fill:#1f77b4;fill-opacity:0.75;stroke:#1f77b4;stroke-opacity:0.75;" x="319.505114" xlink:href="#m6af266dfa7" y="60.998982"/>
     <use style="fill:#1f77b4;fill-opacity:0.75;stroke:#1f77b4;stroke-opacity:0.75;" x="254.510795" xlink:href="#m6af266dfa7" y="70.764167"/>
     <use style="fill:#1f77b4;fill-opacity:0.75;stroke:#1f77b4;stroke-opacity:0.75;" x="175.073295" xlink:href="#m6af266dfa7" y="127.032017"/>
     <use style="fill:#1f77b4;fill-opacity:0.75;stroke:#1f77b4;stroke-opacity:0.75;" x="189.516477" xlink:href="#m6af266dfa7" y="105.657394"/>
     <use style="fill:#1f77b4;fill-opacity:0.75;stroke:#1f77b4;stroke-opacity:0.75;" x="146.186932" xlink:href="#m6af266dfa7" y="74.809889"/>
     <use style="fill:#1f77b4;fill-opacity:0.75;stroke:#1f77b4;stroke-opacity:0.75;" x="326.726705" xlink:href="#m6af266dfa7" y="77.6068"/>
     <use style="fill:#1f77b4;fill-opacity:0.75;stroke:#1f77b4;stroke-opacity:0.75;" x="196.738068" xlink:href="#m6af266dfa7" y="60.337218"/>
     <use style="fill:#1f77b4;fill-opacity:0.75;stroke:#1f77b4;stroke-opacity:0.75;" x="106.414289" xlink:href="#m6af266dfa7" y="115.074775"/>
     <use style="fill:#1f77b4;fill-opacity:0.75;stroke:#1f77b4;stroke-opacity:0.75;" x="297.840341" xlink:href="#m6af266dfa7" y="76.957628"/>
     <use style="fill:#1f77b4;fill-opacity:0.75;stroke:#1f77b4;stroke-opacity:0.75;" x="203.959659" xlink:href="#m6af266dfa7" y="118.526946"/>
     <use style="fill:#1f77b4;fill-opacity:0.75;stroke:#1f77b4;stroke-opacity:0.75;" x="127.188593" xlink:href="#m6af266dfa7" y="93.326812"/>
     <use style="fill:#1f77b4;fill-opacity:0.75;stroke:#1f77b4;stroke-opacity:0.75;" x="135.187893" xlink:href="#m6af266dfa7" y="111.532172"/>
     <use style="fill:#1f77b4;fill-opacity:0.75;stroke:#1f77b4;stroke-opacity:0.75;" x="103.190691" xlink:href="#m6af266dfa7" y="74.596778"/>
     <use style="fill:#1f77b4;fill-opacity:0.75;stroke:#1f77b4;stroke-opacity:0.75;" x="249.31125" xlink:href="#m6af266dfa7" y="89.801679"/>
     <use style="fill:#1f77b4;fill-opacity:0.75;stroke:#1f77b4;stroke-opacity:0.75;" x="278.846568" xlink:href="#m6af266dfa7" y="59.100086"/>
     <use style="fill:#1f77b4;fill-opacity:0.75;stroke:#1f77b4;stroke-opacity:0.75;" x="108.765961" xlink:href="#m6af266dfa7" y="120.481793"/>
     <use style="fill:#1f77b4;fill-opacity:0.75;stroke:#1f77b4;stroke-opacity:0.75;" x="71.193488" xlink:href="#m6af266dfa7" y="85.826639"/>
     <use style="fill:#1f77b4;fill-opacity:0.75;stroke:#1f77b4;stroke-opacity:0.75;" x="268.953977" xlink:href="#m6af266dfa7" y="104.526968"/>
     <use style="fill:#1f77b4;fill-opacity:0.75;stroke:#1f77b4;stroke-opacity:0.75;" x="271.723903" xlink:href="#m6af266dfa7" y="81.473711"/>
     <use style="fill:#1f77b4;fill-opacity:0.75;stroke:#1f77b4;stroke-opacity:0.75;" x="305.061932" xlink:href="#m6af266dfa7" y="54.555141"/>
     <use style="fill:#1f77b4;fill-opacity:0.75;stroke:#1f77b4;stroke-opacity:0.75;" x="332.015757" xlink:href="#m6af266dfa7" y="14.612727"/>
     <use style="fill:#1f77b4;fill-opacity:0.75;stroke:#1f77b4;stroke-opacity:0.75;" x="193.374587" xlink:href="#m6af266dfa7" y="131.538463"/>
     <use style="fill:#1f77b4;fill-opacity:0.75;stroke:#1f77b4;stroke-opacity:0.75;" x="264.601238" xlink:href="#m6af266dfa7" y="67.445611"/>
     <use style="fill:#1f77b4;fill-opacity:0.75;stroke:#1f77b4;stroke-opacity:0.75;" x="350.073218" xlink:href="#m6af266dfa7" y="81.972941"/>
     <use style="fill:#1f77b4;fill-opacity:0.75;stroke:#1f77b4;stroke-opacity:0.75;" x="105.565483" xlink:href="#m6af266dfa7" y="91.262669"/>
     <use style="fill:#1f77b4;fill-opacity:0.75;stroke:#1f77b4;stroke-opacity:0.75;" x="167.851705" xlink:href="#m6af266dfa7" y="75.722371"/>
     <use style="fill:#1f77b4;fill-opacity:0.75;stroke:#1f77b4;stroke-opacity:0.75;" x="116.64406" xlink:href="#m6af266dfa7" y="117.740124"/>
     <use style="fill:#1f77b4;fill-opacity:0.75;stroke:#1f77b4;stroke-opacity:0.75;" x="268.953977" xlink:href="#m6af266dfa7" y="87.536257"/>
     <use style="fill:#1f77b4;fill-opacity:0.75;stroke:#1f77b4;stroke-opacity:0.75;" x="186.251922" xlink:href="#m6af266dfa7" y="56.632698"/>
     <use style="fill:#1f77b4;fill-opacity:0.75;stroke:#1f77b4;stroke-opacity:0.75;" x="257.478573" xlink:href="#m6af266dfa7" y="92.771403"/>
     <use style="fill:#1f77b4;fill-opacity:0.75;stroke:#1f77b4;stroke-opacity:0.75;" x="193.374587" xlink:href="#m6af266dfa7" y="125.354543"/>
     <use style="fill:#1f77b4;fill-opacity:0.75;stroke:#1f77b4;stroke-opacity:0.75;" x="197.128424" xlink:href="#m6af266dfa7" y="90.428396"/>
     <use style="fill:#1f77b4;fill-opacity:0.75;stroke:#1f77b4;stroke-opacity:0.75;" x="175.073295" xlink:href="#m6af266dfa7" y="127.777465"/>
     <use style="fill:#1f77b4;fill-opacity:0.75;stroke:#1f77b4;stroke-opacity:0.75;" x="185.549688" xlink:href="#m6af266dfa7" y="122.964123"/>
     <use style="fill:#1f77b4;fill-opacity:0.75;stroke:#1f77b4;stroke-opacity:0.75;" x="333.948295" xlink:href="#m6af266dfa7" y="119.110973"/>
     <use style="fill:#1f77b4;fill-opacity:0.75;stroke:#1f77b4;stroke-opacity:0.75;" x="268.953977" xlink:href="#m6af266dfa7" y="84.102544"/>
     <use style="fill:#1f77b4;fill-opacity:0.75;stroke:#1f77b4;stroke-opacity:0.75;" x="131.74375" xlink:href="#m6af266dfa7" y="111.79365"/>
     <use style="fill:#1f77b4;fill-opacity:0.75;stroke:#1f77b4;stroke-opacity:0.75;" x="135.090341" xlink:href="#m6af266dfa7" y="97.279205"/>
     <use style="fill:#1f77b4;fill-opacity:0.75;stroke:#1f77b4;stroke-opacity:0.75;" x="261.908523" xlink:href="#m6af266dfa7" y="104.467964"/>
     <use style="fill:#1f77b4;fill-opacity:0.75;stroke:#1f77b4;stroke-opacity:0.75;" x="217.522159" xlink:href="#m6af266dfa7" y="65.080485"/>
     <use style="fill:#1f77b4;fill-opacity:0.75;stroke:#1f77b4;stroke-opacity:0.75;" x="90.703977" xlink:href="#m6af266dfa7" y="67.009255"/>
     <use style="fill:#1f77b4;fill-opacity:0.75;stroke:#1f77b4;stroke-opacity:0.75;" x="198.499432" xlink:href="#m6af266dfa7" y="69.527048"/>
     <use style="fill:#1f77b4;fill-opacity:0.75;stroke:#1f77b4;stroke-opacity:0.75;" x="71.68125" xlink:href="#m6af266dfa7" y="150.239997"/>
     <use style="fill:#1f77b4;fill-opacity:0.75;stroke:#1f77b4;stroke-opacity:0.75;" x="160.453977" xlink:href="#m6af266dfa7" y="42.326477"/>
     <use style="fill:#1f77b4;fill-opacity:0.75;stroke:#1f77b4;stroke-opacity:0.75;" x="293.613068" xlink:href="#m6af266dfa7" y="74.942458"/>
     <use style="fill:#1f77b4;fill-opacity:0.75;stroke:#1f77b4;stroke-opacity:0.75;" x="211.18125" xlink:href="#m6af266dfa7" y="64.869719"/>
     <use style="fill:#1f77b4;fill-opacity:0.75;stroke:#1f77b4;stroke-opacity:0.75;" x="312.635795" xlink:href="#m6af266dfa7" y="86.056359"/>
     <use style="fill:#1f77b4;fill-opacity:0.75;stroke:#1f77b4;stroke-opacity:0.75;" x="287.272159" xlink:href="#m6af266dfa7" y="75.562993"/>
     <use style="fill:#1f77b4;fill-opacity:0.75;stroke:#1f77b4;stroke-opacity:0.75;" x="255.567614" xlink:href="#m6af266dfa7" y="29.481507"/>
     <use style="fill:#1f77b4;fill-opacity:0.75;stroke:#1f77b4;stroke-opacity:0.75;" x="255.567614" xlink:href="#m6af266dfa7" y="103.211487"/>
     <use style="fill:#1f77b4;fill-opacity:0.75;stroke:#1f77b4;stroke-opacity:0.75;" x="185.817614" xlink:href="#m6af266dfa7" y="80.683472"/>
     <use style="fill:#1f77b4;fill-opacity:0.75;stroke:#1f77b4;stroke-opacity:0.75;" x="160.453977" xlink:href="#m6af266dfa7" y="73.116893"/>
     <use style="fill:#1f77b4;fill-opacity:0.75;stroke:#1f77b4;stroke-opacity:0.75;" x="198.499432" xlink:href="#m6af266dfa7" y="79.0394"/>
     <use style="fill:#1f77b4;fill-opacity:0.75;stroke:#1f77b4;stroke-opacity:0.75;" x="331.658523" xlink:href="#m6af266dfa7" y="97.688452"/>
     <use style="fill:#1f77b4;fill-opacity:0.75;stroke:#1f77b4;stroke-opacity:0.75;" x="179.476705" xlink:href="#m6af266dfa7" y="108.733948"/>
     <use style="fill:#1f77b4;fill-opacity:0.75;stroke:#1f77b4;stroke-opacity:0.75;" x="160.453977" xlink:href="#m6af266dfa7" y="85.756669"/>
     <use style="fill:#1f77b4;fill-opacity:0.75;stroke:#1f77b4;stroke-opacity:0.75;" x="58.999432" xlink:href="#m6af266dfa7" y="108.796324"/>
     <use style="fill:#1f77b4;fill-opacity:0.75;stroke:#1f77b4;stroke-opacity:0.75;" x="261.908523" xlink:href="#m6af266dfa7" y="121.380251"/>
     <use style="fill:#1f77b4;fill-opacity:0.75;stroke:#1f77b4;stroke-opacity:0.75;" x="217.522159" xlink:href="#m6af266dfa7" y="77.086006"/>
     <use style="fill:#1f77b4;fill-opacity:0.75;stroke:#1f77b4;stroke-opacity:0.75;" x="274.590341" xlink:href="#m6af266dfa7" y="109.704023"/>
     <use style="fill:#1f77b4;fill-opacity:0.75;stroke:#1f77b4;stroke-opacity:0.75;" x="71.68125" xlink:href="#m6af266dfa7" y="123.371556"/>
     <use style="fill:#1f77b4;fill-opacity:0.75;stroke:#1f77b4;stroke-opacity:0.75;" x="287.272159" xlink:href="#m6af266dfa7" y="66.858005"/>
     <use style="fill:#1f77b4;fill-opacity:0.75;stroke:#1f77b4;stroke-opacity:0.75;" x="198.499432" xlink:href="#m6af266dfa7" y="96.236657"/>
     <use style="fill:#1f77b4;fill-opacity:0.75;stroke:#1f77b4;stroke-opacity:0.75;" x="255.567614" xlink:href="#m6af266dfa7" y="83.175267"/>
     <use style="fill:#1f77b4;fill-opacity:0.75;stroke:#1f77b4;stroke-opacity:0.75;" x="318.976705" xlink:href="#m6af266dfa7" y="91.806391"/>
     <use style="fill:#1f77b4;fill-opacity:0.75;stroke:#1f77b4;stroke-opacity:0.75;" x="268.249432" xlink:href="#m6af266dfa7" y="72.025842"/>
     <use style="fill:#1f77b4;fill-opacity:0.75;stroke:#1f77b4;stroke-opacity:0.75;" x="154.113068" xlink:href="#m6af266dfa7" y="139.981375"/>
     <use style="fill:#1f77b4;fill-opacity:0.75;stroke:#1f77b4;stroke-opacity:0.75;" x="103.385795" xlink:href="#m6af266dfa7" y="89.451764"/>
     <use style="fill:#1f77b4;fill-opacity:0.75;stroke:#1f77b4;stroke-opacity:0.75;" x="299.953977" xlink:href="#m6af266dfa7" y="64.653235"/>
     <use style="fill:#1f77b4;fill-opacity:0.75;stroke:#1f77b4;stroke-opacity:0.75;" x="128.749432" xlink:href="#m6af266dfa7" y="69.624056"/>
     <use style="fill:#1f77b4;fill-opacity:0.75;stroke:#1f77b4;stroke-opacity:0.75;" x="122.408523" xlink:href="#m6af266dfa7" y="64.448694"/>
     <use style="fill:#1f77b4;fill-opacity:0.75;stroke:#1f77b4;stroke-opacity:0.75;" x="179.476705" xlink:href="#m6af266dfa7" y="57.277966"/>
     <use style="fill:#1f77b4;fill-opacity:0.75;stroke:#1f77b4;stroke-opacity:0.75;" x="268.249432" xlink:href="#m6af266dfa7" y="48.777553"/>
     <use style="fill:#1f77b4;fill-opacity:0.75;stroke:#1f77b4;stroke-opacity:0.75;" x="103.385795" xlink:href="#m6af266dfa7" y="156.445624"/>
     <use style="fill:#1f77b4;fill-opacity:0.75;stroke:#1f77b4;stroke-opacity:0.75;" x="242.885795" xlink:href="#m6af266dfa7" y="81.305566"/>
     <use style="fill:#1f77b4;fill-opacity:0.75;stroke:#1f77b4;stroke-opacity:0.75;" x="198.499432" xlink:href="#m6af266dfa7" y="72.445483"/>
     <use style="fill:#1f77b4;fill-opacity:0.75;stroke:#1f77b4;stroke-opacity:0.75;" x="318.976705" xlink:href="#m6af266dfa7" y="50.027093"/>
     <use style="fill:#1f77b4;fill-opacity:0.75;stroke:#1f77b4;stroke-opacity:0.75;" x="363.363068" xlink:href="#m6af266dfa7" y="65.559561"/>
     <use style="fill:#1f77b4;fill-opacity:0.75;stroke:#1f77b4;stroke-opacity:0.75;" x="255.567614" xlink:href="#m6af266dfa7" y="72.561704"/>
     <use style="fill:#1f77b4;fill-opacity:0.75;stroke:#1f77b4;stroke-opacity:0.75;" x="217.522159" xlink:href="#m6af266dfa7" y="59.137691"/>
     <use style="fill:#1f77b4;fill-opacity:0.75;stroke:#1f77b4;stroke-opacity:0.75;" x="173.135795" xlink:href="#m6af266dfa7" y="79.292382"/>
     <use style="fill:#1f77b4;fill-opacity:0.75;stroke:#1f77b4;stroke-opacity:0.75;" x="90.703977" xlink:href="#m6af266dfa7" y="71.757413"/>
     <use style="fill:#1f77b4;fill-opacity:0.75;stroke:#1f77b4;stroke-opacity:0.75;" x="230.203977" xlink:href="#m6af266dfa7" y="137.660552"/>
     <use style="fill:#1f77b4;fill-opacity:0.75;stroke:#1f77b4;stroke-opacity:0.75;" x="230.203977" xlink:href="#m6af266dfa7" y="101.582417"/>
     <use style="fill:#1f77b4;fill-opacity:0.75;stroke:#1f77b4;stroke-opacity:0.75;" x="249.226705" xlink:href="#m6af266dfa7" y="76.324869"/>
     <use style="fill:#1f77b4;fill-opacity:0.75;stroke:#1f77b4;stroke-opacity:0.75;" x="255.567614" xlink:href="#m6af266dfa7" y="71.486598"/>
     <use style="fill:#1f77b4;fill-opacity:0.75;stroke:#1f77b4;stroke-opacity:0.75;" x="135.090341" xlink:href="#m6af266dfa7" y="111.076173"/>
     <use style="fill:#1f77b4;fill-opacity:0.75;stroke:#1f77b4;stroke-opacity:0.75;" x="255.567614" xlink:href="#m6af266dfa7" y="68.739589"/>
     <use style="fill:#1f77b4;fill-opacity:0.75;stroke:#1f77b4;stroke-opacity:0.75;" x="109.726705" xlink:href="#m6af266dfa7" y="139.214263"/>
     <use style="fill:#1f77b4;fill-opacity:0.75;stroke:#1f77b4;stroke-opacity:0.75;" x="280.93125" xlink:href="#m6af266dfa7" y="65.859419"/>
     <use style="fill:#1f77b4;fill-opacity:0.75;stroke:#1f77b4;stroke-opacity:0.75;" x="84.363068" xlink:href="#m6af266dfa7" y="62.886525"/>
     <use style="fill:#1f77b4;fill-opacity:0.75;stroke:#1f77b4;stroke-opacity:0.75;" x="261.908523" xlink:href="#m6af266dfa7" y="52.444196"/>
     <use style="fill:#1f77b4;fill-opacity:0.75;stroke:#1f77b4;stroke-opacity:0.75;" x="122.408523" xlink:href="#m6af266dfa7" y="76.637023"/>
     <use style="fill:#1f77b4;fill-opacity:0.75;stroke:#1f77b4;stroke-opacity:0.75;" x="249.226705" xlink:href="#m6af266dfa7" y="101.657156"/>
     <use style="fill:#1f77b4;fill-opacity:0.75;stroke:#1f77b4;stroke-opacity:0.75;" x="325.317614" xlink:href="#m6af266dfa7" y="102.682153"/>
     <use style="fill:#1f77b4;fill-opacity:0.75;stroke:#1f77b4;stroke-opacity:0.75;" x="255.567614" xlink:href="#m6af266dfa7" y="90.388083"/>
     <use style="fill:#1f77b4;fill-opacity:0.75;stroke:#1f77b4;stroke-opacity:0.75;" x="223.863068" xlink:href="#m6af266dfa7" y="90.675336"/>
    </g>
   </g>
   <g id="line2d_13">
    <path clip-path="url(#pd49d17f6d6)" d="M 247.289205 81.412349 
L 211.18125 88.43604 
L 297.840341 71.579182 
L 175.073295 95.459732 
L 189.516477 92.650255 
L 110.078977 108.102375 
L 254.510795 80.007611 
L 290.61875 72.98392 
L 95.635795 110.911852 
L 232.846023 84.221826 
L 73.971023 115.126066 
L 196.738068 91.245517 
L 290.61875 72.98392 
L 254.510795 80.007611 
L 225.624432 85.626564 
L 240.067614 82.817088 
L 283.397159 74.388658 
L 117.300568 106.697637 
L 175.073295 95.459732 
L 247.289205 81.412349 
L 110.078977 108.102375 
L 102.857386 109.507114 
L 305.061932 70.174444 
L 319.505114 67.364967 
L 254.510795 80.007611 
L 175.073295 95.459732 
L 189.516477 92.650255 
L 146.186932 101.078684 
L 326.726705 65.960229 
L 196.738068 91.245517 
L 106.414289 108.815228 
L 297.840341 71.579182 
L 203.959659 89.840779 
L 127.188593 104.774226 
L 135.187893 103.218209 
L 103.190691 109.44228 
L 249.31125 81.019023 
L 278.846568 75.273836 
L 108.765961 108.357782 
L 71.193488 115.66635 
L 268.953977 77.198135 
L 271.723903 76.659331 
L 305.061932 70.174444 
L 332.015757 64.931407 
L 193.374587 91.899779 
L 264.601238 78.044826 
L 350.073218 61.418884 
L 105.565483 108.980337 
L 167.851705 96.86447 
L 116.64406 106.825341 
L 268.953977 77.198135 
L 186.251922 93.285274 
L 257.478573 79.430322 
L 193.374587 91.899779 
L 197.128424 91.169585 
L 175.073295 95.459732 
L 185.549688 93.421872 
L 333.948295 64.555491 
L 268.953977 77.198135 
L 131.74375 103.888161 
L 135.090341 103.237185 
L 261.908523 78.568611 
L 217.522159 87.202612 
L 90.703977 111.871185 
L 198.499432 90.902898 
L 71.68125 115.571471 
L 160.453977 98.30347 
L 293.613068 72.401468 
L 211.18125 88.43604 
L 312.635795 68.701182 
L 287.272159 73.634896 
L 255.567614 79.80204 
L 255.567614 79.80204 
L 185.817614 93.369755 
L 160.453977 98.30347 
L 198.499432 90.902898 
L 331.658523 65.000896 
L 179.476705 94.603184 
L 160.453977 98.30347 
L 58.999432 118.038329 
L 261.908523 78.568611 
L 217.522159 87.202612 
L 274.590341 76.101754 
L 71.68125 115.571471 
L 287.272159 73.634896 
L 198.499432 90.902898 
L 255.567614 79.80204 
L 318.976705 67.467753 
L 268.249432 77.335182 
L 154.113068 99.536899 
L 103.385795 109.404328 
L 299.953977 71.168039 
L 128.749432 104.470613 
L 122.408523 105.704042 
L 179.476705 94.603184 
L 268.249432 77.335182 
L 103.385795 109.404328 
L 242.885795 82.268897 
L 198.499432 90.902898 
L 318.976705 67.467753 
L 363.363068 58.833752 
L 255.567614 79.80204 
L 217.522159 87.202612 
L 173.135795 95.836613 
L 90.703977 111.871185 
L 230.203977 84.735754 
L 230.203977 84.735754 
L 249.226705 81.035468 
L 255.567614 79.80204 
L 135.090341 103.237185 
L 255.567614 79.80204 
L 109.726705 108.170899 
L 280.93125 74.868325 
L 84.363068 113.104614 
L 261.908523 78.568611 
L 122.408523 105.704042 
L 249.226705 81.035468 
L 325.317614 66.234324 
L 255.567614 79.80204 
L 223.863068 85.969183 
" style="fill:none;stroke:#ff7f0e;stroke-linecap:square;stroke-width:1.5;"/>
   </g>
   <g id="line2d_14">
    <defs>
     <path d="M 0 3 
C 0.795609 3 1.55874 2.683901 2.12132 2.12132 
C 2.683901 1.55874 3 0.795609 3 0 
C 3 -0.795609 2.683901 -1.55874 2.12132 -2.12132 
C 1.55874 -2.683901 0.795609 -3 0 -3 
C -0.795609 -3 -1.55874 -2.683901 -2.12132 -2.12132 
C -2.683901 -1.55874 -3 -0.795609 -3 0 
C -3 0.795609 -2.683901 1.55874 -2.12132 2.12132 
C -1.55874 2.683901 -0.795609 3 0 3 
z
" id="mc8fa27d3ef" style="stroke:#000000;"/>
    </defs>
    <g clip-path="url(#pd49d17f6d6)">
     <use style="stroke:#000000;" x="247.289205" xlink:href="#mc8fa27d3ef" y="83.558822"/>
     <use style="stroke:#000000;" x="211.18125" xlink:href="#mc8fa27d3ef" y="64.526991"/>
     <use style="stroke:#000000;" x="297.840341" xlink:href="#mc8fa27d3ef" y="81.179843"/>
     <use style="stroke:#000000;" x="175.073295" xlink:href="#mc8fa27d3ef" y="76.421886"/>
     <use style="stroke:#000000;" x="189.516477" xlink:href="#mc8fa27d3ef" y="83.558822"/>
     <use style="stroke:#000000;" x="110.078977" xlink:href="#mc8fa27d3ef" y="81.179843"/>
     <use style="stroke:#000000;" x="254.510795" xlink:href="#mc8fa27d3ef" y="62.148012"/>
     <use style="stroke:#000000;" x="290.61875" xlink:href="#mc8fa27d3ef" y="71.663928"/>
     <use style="stroke:#000000;" x="95.635795" xlink:href="#mc8fa27d3ef" y="131.1384"/>
     <use style="stroke:#000000;" x="232.846023" xlink:href="#mc8fa27d3ef" y="59.769033"/>
     <use style="stroke:#000000;" x="73.971023" xlink:href="#mc8fa27d3ef" y="138.275337"/>
     <use style="stroke:#000000;" x="196.738068" xlink:href="#mc8fa27d3ef" y="126.380442"/>
     <use style="stroke:#000000;" x="290.61875" xlink:href="#mc8fa27d3ef" y="85.937801"/>
     <use style="stroke:#000000;" x="254.510795" xlink:href="#mc8fa27d3ef" y="107.348611"/>
     <use style="stroke:#000000;" x="225.624432" xlink:href="#mc8fa27d3ef" y="52.632097"/>
     <use style="stroke:#000000;" x="240.067614" xlink:href="#mc8fa27d3ef" y="59.769033"/>
     <use style="stroke:#000000;" x="283.397159" xlink:href="#mc8fa27d3ef" y="64.526991"/>
     <use style="stroke:#000000;" x="117.300568" xlink:href="#mc8fa27d3ef" y="76.421886"/>
     <use style="stroke:#000000;" x="175.073295" xlink:href="#mc8fa27d3ef" y="100.211674"/>
     <use style="stroke:#000000;" x="247.289205" xlink:href="#mc8fa27d3ef" y="97.832696"/>
     <use style="stroke:#000000;" x="110.078977" xlink:href="#mc8fa27d3ef" y="128.759421"/>
     <use style="stroke:#000000;" x="102.857386" xlink:href="#mc8fa27d3ef" y="133.517379"/>
     <use style="stroke:#000000;" x="305.061932" xlink:href="#mc8fa27d3ef" y="64.526991"/>
     <use style="stroke:#000000;" x="319.505114" xlink:href="#mc8fa27d3ef" y="33.600265"/>
     <use style="stroke:#000000;" x="254.510795" xlink:href="#mc8fa27d3ef" y="121.622485"/>
     <use style="stroke:#000000;" x="175.073295" xlink:href="#mc8fa27d3ef" y="114.485548"/>
     <use style="stroke:#000000;" x="189.516477" xlink:href="#mc8fa27d3ef" y="104.969632"/>
     <use style="stroke:#000000;" x="146.186932" xlink:href="#mc8fa27d3ef" y="71.663928"/>
     <use style="stroke:#000000;" x="326.726705" xlink:href="#mc8fa27d3ef" y="69.284949"/>
     <use style="stroke:#000000;" x="196.738068" xlink:href="#mc8fa27d3ef" y="102.590653"/>
     <use style="stroke:#000000;" x="106.414289" xlink:href="#mc8fa27d3ef" y="74.769817"/>
     <use style="stroke:#000000;" x="297.840341" xlink:href="#mc8fa27d3ef" y="88.31678"/>
     <use style="stroke:#000000;" x="203.959659" xlink:href="#mc8fa27d3ef" y="55.804068"/>
     <use style="stroke:#000000;" x="127.188593" xlink:href="#mc8fa27d3ef" y="101.863743"/>
     <use style="stroke:#000000;" x="135.187893" xlink:href="#mc8fa27d3ef" y="96.444958"/>
     <use style="stroke:#000000;" x="103.190691" xlink:href="#mc8fa27d3ef" y="126.248277"/>
     <use style="stroke:#000000;" x="249.31125" xlink:href="#mc8fa27d3ef" y="72.060424"/>
     <use style="stroke:#000000;" x="278.846568" xlink:href="#mc8fa27d3ef" y="58.513461"/>
     <use style="stroke:#000000;" x="108.765961" xlink:href="#mc8fa27d3ef" y="131.667062"/>
     <use style="stroke:#000000;" x="71.193488" xlink:href="#mc8fa27d3ef" y="80.188602"/>
     <use style="stroke:#000000;" x="268.953977" xlink:href="#mc8fa27d3ef" y="139.79524"/>
     <use style="stroke:#000000;" x="271.723903" xlink:href="#mc8fa27d3ef" y="93.735565"/>
     <use style="stroke:#000000;" x="305.061932" xlink:href="#mc8fa27d3ef" y="58.513461"/>
     <use style="stroke:#000000;" x="332.015757" xlink:href="#mc8fa27d3ef" y="72.060424"/>
     <use style="stroke:#000000;" x="193.374587" xlink:href="#mc8fa27d3ef" y="82.897995"/>
     <use style="stroke:#000000;" x="264.601238" xlink:href="#mc8fa27d3ef" y="77.479209"/>
     <use style="stroke:#000000;" x="350.073218" xlink:href="#mc8fa27d3ef" y="61.222854"/>
     <use style="stroke:#000000;" x="105.565483" xlink:href="#mc8fa27d3ef" y="123.538884"/>
     <use style="stroke:#000000;" x="167.851705" xlink:href="#mc8fa27d3ef" y="101.863743"/>
     <use style="stroke:#000000;" x="116.64406" xlink:href="#mc8fa27d3ef" y="74.769817"/>
     <use style="stroke:#000000;" x="268.953977" xlink:href="#mc8fa27d3ef" y="126.248277"/>
     <use style="stroke:#000000;" x="186.251922" xlink:href="#mc8fa27d3ef" y="128.957669"/>
     <use style="stroke:#000000;" x="257.478573" xlink:href="#mc8fa27d3ef" y="53.094676"/>
     <use style="stroke:#000000;" x="193.374587" xlink:href="#mc8fa27d3ef" y="47.675891"/>
     <use style="stroke:#000000;" x="197.128424" xlink:href="#mc8fa27d3ef" y="72.060424"/>
     <use style="stroke:#000000;" x="175.073295" xlink:href="#mc8fa27d3ef" y="101.863743"/>
     <use style="stroke:#000000;" x="185.549688" xlink:href="#mc8fa27d3ef" y="96.444958"/>
     <use style="stroke:#000000;" x="333.948295" xlink:href="#mc8fa27d3ef" y="112.701314"/>
     <use style="stroke:#000000;" x="268.953977" xlink:href="#mc8fa27d3ef" y="44.966498"/>
     <use style="stroke:#000000;" x="131.74375" xlink:href="#mc8fa27d3ef" y="93.735565"/>
     <use style="stroke:#000000;" x="135.090341" xlink:href="#mc8fa27d3ef" y="127.623193"/>
     <use style="stroke:#000000;" x="261.908523" xlink:href="#mc8fa27d3ef" y="55.804068"/>
     <use style="stroke:#000000;" x="217.522159" xlink:href="#mc8fa27d3ef" y="91.026173"/>
     <use style="stroke:#000000;" x="90.703977" xlink:href="#mc8fa27d3ef" y="119.8291"/>
     <use style="stroke:#000000;" x="198.499432" xlink:href="#mc8fa27d3ef" y="116.827927"/>
     <use style="stroke:#000000;" x="71.68125" xlink:href="#mc8fa27d3ef" y="128.832621"/>
     <use style="stroke:#000000;" x="160.453977" xlink:href="#mc8fa27d3ef" y="74.011187"/>
     <use style="stroke:#000000;" x="293.613068" xlink:href="#mc8fa27d3ef" y="62.930142"/>
     <use style="stroke:#000000;" x="211.18125" xlink:href="#mc8fa27d3ef" y="126.740894"/>
     <use style="stroke:#000000;" x="312.635795" xlink:href="#mc8fa27d3ef" y="140.837314"/>
     <use style="stroke:#000000;" x="287.272159" xlink:href="#mc8fa27d3ef" y="66.641639"/>
     <use style="stroke:#000000;" x="255.567614" xlink:href="#mc8fa27d3ef" y="65.60242"/>
     <use style="stroke:#000000;" x="255.567614" xlink:href="#mc8fa27d3ef" y="53.094676"/>
     <use style="stroke:#000000;" x="185.817614" xlink:href="#mc8fa27d3ef" y="42.982154"/>
     <use style="stroke:#000000;" x="160.453977" xlink:href="#mc8fa27d3ef" y="94.997474"/>
     <use style="stroke:#000000;" x="198.499432" xlink:href="#mc8fa27d3ef" y="68.274698"/>
     <use style="stroke:#000000;" x="331.658523" xlink:href="#mc8fa27d3ef" y="36.207366"/>
     <use style="stroke:#000000;" x="179.476705" xlink:href="#mc8fa27d3ef" y="127.941647"/>
     <use style="stroke:#000000;" x="160.453977" xlink:href="#mc8fa27d3ef" y="104.573136"/>
     <use style="stroke:#000000;" x="58.999432" xlink:href="#mc8fa27d3ef" y="123.785193"/>
     <use style="stroke:#000000;" x="261.908523" xlink:href="#mc8fa27d3ef" y="66.641639"/>
     <use style="stroke:#000000;" x="217.522159" xlink:href="#mc8fa27d3ef" y="97.669752"/>
     <use style="stroke:#000000;" x="274.590341" xlink:href="#mc8fa27d3ef" y="70.946975"/>
     <use style="stroke:#000000;" x="71.68125" xlink:href="#mc8fa27d3ef" y="94.997474"/>
     <use style="stroke:#000000;" x="287.272159" xlink:href="#mc8fa27d3ef" y="93.589112"/>
     <use style="stroke:#000000;" x="198.499432" xlink:href="#mc8fa27d3ef" y="101.863743"/>
     <use style="stroke:#000000;" x="255.567614" xlink:href="#mc8fa27d3ef" y="97.933216"/>
     <use style="stroke:#000000;" x="318.976705" xlink:href="#mc8fa27d3ef" y="42.257105"/>
     <use style="stroke:#000000;" x="268.249432" xlink:href="#mc8fa27d3ef" y="66.641639"/>
     <use style="stroke:#000000;" x="154.113068" xlink:href="#mc8fa27d3ef" y="118.120099"/>
     <use style="stroke:#000000;" x="103.385795" xlink:href="#mc8fa27d3ef" y="116.864527"/>
     <use style="stroke:#000000;" x="299.953977" xlink:href="#mc8fa27d3ef" y="69.284949"/>
     <use style="stroke:#000000;" x="128.749432" xlink:href="#mc8fa27d3ef" y="85.937801"/>
     <use style="stroke:#000000;" x="122.408523" xlink:href="#mc8fa27d3ef" y="133.517379"/>
     <use style="stroke:#000000;" x="179.476705" xlink:href="#mc8fa27d3ef" y="93.074738"/>
     <use style="stroke:#000000;" x="268.249432" xlink:href="#mc8fa27d3ef" y="140.654316"/>
     <use style="stroke:#000000;" x="103.385795" xlink:href="#mc8fa27d3ef" y="107.348611"/>
     <use style="stroke:#000000;" x="242.885795" xlink:href="#mc8fa27d3ef" y="57.390054"/>
     <use style="stroke:#000000;" x="198.499432" xlink:href="#mc8fa27d3ef" y="88.31678"/>
     <use style="stroke:#000000;" x="318.976705" xlink:href="#mc8fa27d3ef" y="50.253118"/>
     <use style="stroke:#000000;" x="363.363068" xlink:href="#mc8fa27d3ef" y="59.769033"/>
     <use style="stroke:#000000;" x="255.567614" xlink:href="#mc8fa27d3ef" y="71.663928"/>
     <use style="stroke:#000000;" x="217.522159" xlink:href="#mc8fa27d3ef" y="71.663928"/>
     <use style="stroke:#000000;" x="173.135795" xlink:href="#mc8fa27d3ef" y="97.832696"/>
     <use style="stroke:#000000;" x="90.703977" xlink:href="#mc8fa27d3ef" y="107.348611"/>
     <use style="stroke:#000000;" x="230.203977" xlink:href="#mc8fa27d3ef" y="93.074738"/>
     <use style="stroke:#000000;" x="230.203977" xlink:href="#mc8fa27d3ef" y="43.116181"/>
     <use style="stroke:#000000;" x="249.226705" xlink:href="#mc8fa27d3ef" y="100.211674"/>
     <use style="stroke:#000000;" x="255.567614" xlink:href="#mc8fa27d3ef" y="107.348611"/>
     <use style="stroke:#000000;" x="135.090341" xlink:href="#mc8fa27d3ef" y="145.412274"/>
     <use style="stroke:#000000;" x="255.567614" xlink:href="#mc8fa27d3ef" y="69.284949"/>
     <use style="stroke:#000000;" x="109.726705" xlink:href="#mc8fa27d3ef" y="85.937801"/>
     <use style="stroke:#000000;" x="280.93125" xlink:href="#mc8fa27d3ef" y="64.526991"/>
     <use style="stroke:#000000;" x="84.363068" xlink:href="#mc8fa27d3ef" y="140.654316"/>
     <use style="stroke:#000000;" x="261.908523" xlink:href="#mc8fa27d3ef" y="59.769033"/>
     <use style="stroke:#000000;" x="122.408523" xlink:href="#mc8fa27d3ef" y="93.074738"/>
     <use style="stroke:#000000;" x="249.226705" xlink:href="#mc8fa27d3ef" y="71.663928"/>
     <use style="stroke:#000000;" x="325.317614" xlink:href="#mc8fa27d3ef" y="47.874139"/>
     <use style="stroke:#000000;" x="255.567614" xlink:href="#mc8fa27d3ef" y="66.90597"/>
     <use style="stroke:#000000;" x="223.863068" xlink:href="#mc8fa27d3ef" y="109.72759"/>
    </g>
   </g>
   <g id="patch_3">
    <path d="M 43.78125 170.28 
L 43.78125 7.2 
" style="fill:none;stroke:#000000;stroke-linecap:square;stroke-linejoin:miter;stroke-width:0.8;"/>
   </g>
   <g id="patch_4">
    <path d="M 378.58125 170.28 
L 378.58125 7.2 
" style="fill:none;stroke:#000000;stroke-linecap:square;stroke-linejoin:miter;stroke-width:0.8;"/>
   </g>
   <g id="patch_5">
    <path d="M 43.78125 170.28 
L 378.58125 170.28 
" style="fill:none;stroke:#000000;stroke-linecap:square;stroke-linejoin:miter;stroke-width:0.8;"/>
   </g>
   <g id="patch_6">
    <path d="M 43.78125 7.2 
L 378.58125 7.2 
" style="fill:none;stroke:#000000;stroke-linecap:square;stroke-linejoin:miter;stroke-width:0.8;"/>
   </g>
   <g id="legend_1">
    <g id="patch_7">
     <path d="M 50.78125 59.234375 
L 164.357813 59.234375 
Q 166.357813 59.234375 166.357813 57.234375 
L 166.357813 14.2 
Q 166.357813 12.2 164.357813 12.2 
L 50.78125 12.2 
Q 48.78125 12.2 48.78125 14.2 
L 48.78125 57.234375 
Q 48.78125 59.234375 50.78125 59.234375 
z
" style="fill:#ffffff;opacity:0.8;stroke:#cccccc;stroke-linejoin:miter;"/>
    </g>
    <g id="line2d_15"/>
    <g id="line2d_16">
     <g>
      <use style="fill:#1f77b4;fill-opacity:0.75;stroke:#1f77b4;stroke-opacity:0.75;" x="62.78125" xlink:href="#m6af266dfa7" y="20.298438"/>
     </g>
    </g>
    <g id="text_14">
     <!-- Predicted Win % -->
     <defs>
      <path d="M 45.40625 46.390625 
L 45.40625 75.984375 
L 54.390625 75.984375 
L 54.390625 0 
L 45.40625 0 
L 45.40625 8.203125 
Q 42.578125 3.328125 38.25 0.953125 
Q 33.9375 -1.421875 27.875 -1.421875 
Q 17.96875 -1.421875 11.734375 6.484375 
Q 5.515625 14.40625 5.515625 27.296875 
Q 5.515625 40.1875 11.734375 48.09375 
Q 17.96875 56 27.875 56 
Q 33.9375 56 38.25 53.625 
Q 42.578125 51.265625 45.40625 46.390625 
z
M 14.796875 27.296875 
Q 14.796875 17.390625 18.875 11.75 
Q 22.953125 6.109375 30.078125 6.109375 
Q 37.203125 6.109375 41.296875 11.75 
Q 45.40625 17.390625 45.40625 27.296875 
Q 45.40625 37.203125 41.296875 42.84375 
Q 37.203125 48.484375 30.078125 48.484375 
Q 22.953125 48.484375 18.875 42.84375 
Q 14.796875 37.203125 14.796875 27.296875 
z
" id="DejaVuSans-100"/>
      <path d="M 72.703125 32.078125 
Q 68.453125 32.078125 66.03125 28.46875 
Q 63.625 24.859375 63.625 18.40625 
Q 63.625 12.0625 66.03125 8.421875 
Q 68.453125 4.78125 72.703125 4.78125 
Q 76.859375 4.78125 79.265625 8.421875 
Q 81.6875 12.0625 81.6875 18.40625 
Q 81.6875 24.8125 79.265625 28.4375 
Q 76.859375 32.078125 72.703125 32.078125 
z
M 72.703125 38.28125 
Q 80.421875 38.28125 84.953125 32.90625 
Q 89.5 27.546875 89.5 18.40625 
Q 89.5 9.28125 84.9375 3.921875 
Q 80.375 -1.421875 72.703125 -1.421875 
Q 64.890625 -1.421875 60.34375 3.921875 
Q 55.8125 9.28125 55.8125 18.40625 
Q 55.8125 27.59375 60.375 32.9375 
Q 64.9375 38.28125 72.703125 38.28125 
z
M 22.3125 68.015625 
Q 18.109375 68.015625 15.6875 64.375 
Q 13.28125 60.75 13.28125 54.390625 
Q 13.28125 47.953125 15.671875 44.328125 
Q 18.0625 40.71875 22.3125 40.71875 
Q 26.5625 40.71875 28.96875 44.328125 
Q 31.390625 47.953125 31.390625 54.390625 
Q 31.390625 60.6875 28.953125 64.34375 
Q 26.515625 68.015625 22.3125 68.015625 
z
M 66.40625 74.21875 
L 74.21875 74.21875 
L 28.609375 -1.421875 
L 20.796875 -1.421875 
z
M 22.3125 74.21875 
Q 30.03125 74.21875 34.609375 68.875 
Q 39.203125 63.53125 39.203125 54.390625 
Q 39.203125 45.171875 34.640625 39.84375 
Q 30.078125 34.515625 22.3125 34.515625 
Q 14.546875 34.515625 10.03125 39.859375 
Q 5.515625 45.21875 5.515625 54.390625 
Q 5.515625 63.484375 10.046875 68.84375 
Q 14.59375 74.21875 22.3125 74.21875 
z
" id="DejaVuSans-37"/>
     </defs>
     <g transform="translate(80.78125 23.798438)scale(0.1 -0.1)">
      <use xlink:href="#DejaVuSans-80"/>
      <use x="58.552734" xlink:href="#DejaVuSans-114"/>
      <use x="97.416016" xlink:href="#DejaVuSans-101"/>
      <use x="158.939453" xlink:href="#DejaVuSans-100"/>
      <use x="222.416016" xlink:href="#DejaVuSans-105"/>
      <use x="250.199219" xlink:href="#DejaVuSans-99"/>
      <use x="305.179688" xlink:href="#DejaVuSans-116"/>
      <use x="344.388672" xlink:href="#DejaVuSans-101"/>
      <use x="405.912109" xlink:href="#DejaVuSans-100"/>
      <use x="469.388672" xlink:href="#DejaVuSans-32"/>
      <use x="501.175781" xlink:href="#DejaVuSans-87"/>
      <use x="597.802734" xlink:href="#DejaVuSans-105"/>
      <use x="625.585938" xlink:href="#DejaVuSans-110"/>
      <use x="688.964844" xlink:href="#DejaVuSans-32"/>
      <use x="720.751953" xlink:href="#DejaVuSans-37"/>
     </g>
    </g>
    <g id="line2d_17">
     <path d="M 52.78125 34.976563 
L 72.78125 34.976563 
" style="fill:none;stroke:#ff7f0e;stroke-linecap:square;stroke-width:1.5;"/>
    </g>
    <g id="line2d_18"/>
    <g id="text_15">
     <!-- Model Trendline -->
     <defs>
      <path d="M 9.8125 72.90625 
L 24.515625 72.90625 
L 43.109375 23.296875 
L 61.8125 72.90625 
L 76.515625 72.90625 
L 76.515625 0 
L 66.890625 0 
L 66.890625 64.015625 
L 48.09375 14.015625 
L 38.1875 14.015625 
L 19.390625 64.015625 
L 19.390625 0 
L 9.8125 0 
z
" id="DejaVuSans-77"/>
      <path d="M 30.609375 48.390625 
Q 23.390625 48.390625 19.1875 42.75 
Q 14.984375 37.109375 14.984375 27.296875 
Q 14.984375 17.484375 19.15625 11.84375 
Q 23.34375 6.203125 30.609375 6.203125 
Q 37.796875 6.203125 41.984375 11.859375 
Q 46.1875 17.53125 46.1875 27.296875 
Q 46.1875 37.015625 41.984375 42.703125 
Q 37.796875 48.390625 30.609375 48.390625 
z
M 30.609375 56 
Q 42.328125 56 49.015625 48.375 
Q 55.71875 40.765625 55.71875 27.296875 
Q 55.71875 13.875 49.015625 6.21875 
Q 42.328125 -1.421875 30.609375 -1.421875 
Q 18.84375 -1.421875 12.171875 6.21875 
Q 5.515625 13.875 5.515625 27.296875 
Q 5.515625 40.765625 12.171875 48.375 
Q 18.84375 56 30.609375 56 
z
" id="DejaVuSans-111"/>
      <path d="M 9.421875 75.984375 
L 18.40625 75.984375 
L 18.40625 0 
L 9.421875 0 
z
" id="DejaVuSans-108"/>
      <path d="M -0.296875 72.90625 
L 61.375 72.90625 
L 61.375 64.59375 
L 35.5 64.59375 
L 35.5 0 
L 25.59375 0 
L 25.59375 64.59375 
L -0.296875 64.59375 
z
" id="DejaVuSans-84"/>
     </defs>
     <g transform="translate(80.78125 38.476563)scale(0.1 -0.1)">
      <use xlink:href="#DejaVuSans-77"/>
      <use x="86.279297" xlink:href="#DejaVuSans-111"/>
      <use x="147.460938" xlink:href="#DejaVuSans-100"/>
      <use x="210.9375" xlink:href="#DejaVuSans-101"/>
      <use x="272.460938" xlink:href="#DejaVuSans-108"/>
      <use x="300.244141" xlink:href="#DejaVuSans-32"/>
      <use x="332.03125" xlink:href="#DejaVuSans-84"/>
      <use x="378.365234" xlink:href="#DejaVuSans-114"/>
      <use x="417.228516" xlink:href="#DejaVuSans-101"/>
      <use x="478.751953" xlink:href="#DejaVuSans-110"/>
      <use x="542.130859" xlink:href="#DejaVuSans-100"/>
      <use x="605.607422" xlink:href="#DejaVuSans-108"/>
      <use x="633.390625" xlink:href="#DejaVuSans-105"/>
      <use x="661.173828" xlink:href="#DejaVuSans-110"/>
      <use x="724.552734" xlink:href="#DejaVuSans-101"/>
     </g>
    </g>
    <g id="line2d_19"/>
    <g id="line2d_20">
     <g>
      <use style="stroke:#000000;" x="62.78125" xlink:href="#mc8fa27d3ef" y="49.654688"/>
     </g>
    </g>
    <g id="text_16">
     <!-- Actual Win% -->
     <defs>
      <path d="M 34.1875 63.1875 
L 20.796875 26.90625 
L 47.609375 26.90625 
z
M 28.609375 72.90625 
L 39.796875 72.90625 
L 67.578125 0 
L 57.328125 0 
L 50.6875 18.703125 
L 17.828125 18.703125 
L 11.1875 0 
L 0.78125 0 
z
" id="DejaVuSans-65"/>
      <path d="M 8.5 21.578125 
L 8.5 54.6875 
L 17.484375 54.6875 
L 17.484375 21.921875 
Q 17.484375 14.15625 20.5 10.265625 
Q 23.53125 6.390625 29.59375 6.390625 
Q 36.859375 6.390625 41.078125 11.03125 
Q 45.3125 15.671875 45.3125 23.6875 
L 45.3125 54.6875 
L 54.296875 54.6875 
L 54.296875 0 
L 45.3125 0 
L 45.3125 8.40625 
Q 42.046875 3.421875 37.71875 1 
Q 33.40625 -1.421875 27.6875 -1.421875 
Q 18.265625 -1.421875 13.375 4.4375 
Q 8.5 10.296875 8.5 21.578125 
z
M 31.109375 56 
z
" id="DejaVuSans-117"/>
     </defs>
     <g transform="translate(80.78125 53.154688)scale(0.1 -0.1)">
      <use xlink:href="#DejaVuSans-65"/>
      <use x="66.658203" xlink:href="#DejaVuSans-99"/>
      <use x="121.638672" xlink:href="#DejaVuSans-116"/>
      <use x="160.847656" xlink:href="#DejaVuSans-117"/>
      <use x="224.226562" xlink:href="#DejaVuSans-97"/>
      <use x="285.505859" xlink:href="#DejaVuSans-108"/>
      <use x="313.289062" xlink:href="#DejaVuSans-32"/>
      <use x="345.076172" xlink:href="#DejaVuSans-87"/>
      <use x="441.703125" xlink:href="#DejaVuSans-105"/>
      <use x="469.486328" xlink:href="#DejaVuSans-110"/>
      <use x="532.865234" xlink:href="#DejaVuSans-37"/>
     </g>
    </g>
   </g>
  </g>
 </g>
 <defs>
  <clipPath id="pd49d17f6d6">
   <rect height="163.08" width="334.8" x="43.78125" y="7.2"/>
  </clipPath>
 </defs>
</svg>
